# xmcd
#
# Track frame offsets: 
#        150
#        10967
#        27482
#        51592
#        64260
#        79430
#        100442
#        112987
#        135672
#        152707
#        175745
#        178562
#        213222
#        230790
#        246670
#
# Disc length: 3549 seconds
#
# Revision: 12
# Processed by: cddbd v1.5.2PL0 Copyright (c) Steve Scherf et al.
# Submitted via: ExactAudioCopyFreeDBPlugin 1.0
#
DISCID=da0ddb0f
DTITLE=Stevie Ray Vaughan - Texas Flood
DYEAR=1983
DGENRE=Blues
TTITLE0=Love Struck Baby
TTITLE1=Pride and Joy
TTITLE2=Texas Flood
TTITLE3=Tell Me
TTITLE4=Testify
TTITLE5=Rude Mood
TTITLE6=Mary Had a Little Lamb
TTITLE7=Dirty Pool
TTITLE8=I'm Cryin'
TTITLE9=Lenny
TTITLE10=SRV speaks (bonus track)
TTITLE11=Tin Pan Alley (aka "Roughest Place in Town") (bonus track)
TTITLE12=Testify (live) (bonus track)
TTITLE13=Mary Had a Little Lamb (live) (bonus track)
TTITLE14=Wham! (live) (bonus track)
EXTD=
EXTT0=
EXTT1=
EXTT2=
EXTT3=
EXTT4=
EXTT5=
EXTT6=
EXTT7=
EXTT8=
EXTT9=
EXTT10=
EXTT11=
EXTT12=
EXTT13=
EXTT14=
PLAYORDER=
